<svg width="24" height="24" viewBox="0 0 24 24" fill="none" xmlns="http://www.w3.org/2000/svg">
<path d="M12.001 2.0603C6.47895 2.0603 2.00195 6.51857 2.00195 12.0175C2.00195 16.9866 5.65795 21.1053 10.439 21.8551V14.8964H7.89895V12.0175H10.439V9.82368C10.439 7.32618 11.932 5.94896 14.215 5.94896C15.309 5.94896 16.455 6.14315 16.455 6.14315V8.59186H15.191C13.951 8.59186 13.563 9.36063 13.563 10.1483V12.0155H16.334L15.891 14.8944H13.563V21.8531C18.344 21.1073 22 16.9876 22 12.0175C22 6.51857 17.523 2.0603 12.001 2.0603V2.0603Z" fill="#CDC5BF"/>
</svg>
