<svg width="24" height="24" viewBox="0 0 24 24" fill="none" xmlns="http://www.w3.org/2000/svg">
<path d="M11.999 7.41284C10.7726 7.41284 9.59651 7.89797 8.72934 8.76151C7.86217 9.62505 7.375 10.7963 7.375 12.0175C7.375 13.2387 7.86217 14.4099 8.72934 15.2735C9.59651 16.137 10.7726 16.6221 11.999 16.6221C13.2254 16.6221 14.4015 16.137 15.2687 15.2735C16.1358 14.4099 16.623 13.2387 16.623 12.0175C16.623 10.7963 16.1358 9.62505 15.2687 8.76151C14.4015 7.89797 13.2254 7.41284 11.999 7.41284V7.41284ZM11.999 15.0079C11.2023 15.0079 10.4382 14.6928 9.87485 14.1318C9.31149 13.5708 8.995 12.8099 8.995 12.0165C8.995 11.2231 9.31149 10.4622 9.87485 9.90124C10.4382 9.34024 11.2023 9.02507 11.999 9.02507C12.7957 9.02507 13.5598 9.34024 14.1231 9.90124C14.6865 10.4622 15.003 11.2231 15.003 12.0165C15.003 12.8099 14.6865 13.5708 14.1231 14.1318C13.5598 14.6928 12.7957 15.0079 11.999 15.0079V15.0079Z" fill="#CDC5BF"/>
<path d="M16.8065 8.31754C17.4019 8.31754 17.8845 7.83681 17.8845 7.24379C17.8845 6.65078 17.4019 6.17004 16.8065 6.17004C16.2112 6.17004 15.7285 6.65078 15.7285 7.24379C15.7285 7.83681 16.2112 8.31754 16.8065 8.31754Z" fill="#CDC5BF"/>
<path d="M20.533 6.15209C20.3015 5.55677 19.9477 5.01614 19.4943 4.56481C19.0409 4.11349 18.4979 3.7614 17.9 3.5311C17.2003 3.26955 16.4611 3.12813 15.714 3.11286C14.751 3.07103 14.446 3.05908 12.004 3.05908C9.56195 3.05908 9.24895 3.05908 8.29395 3.11286C7.54734 3.12735 6.80871 3.2688 6.10995 3.5311C5.51189 3.76113 4.96872 4.11312 4.51529 4.56448C4.06186 5.01585 3.70818 5.55661 3.47695 6.15209C3.21426 6.84877 3.07257 7.5849 3.05795 8.32894C3.01495 9.28691 3.00195 9.59064 3.00195 12.0234C3.00195 14.4552 3.00195 14.7649 3.05795 15.7179C3.07295 16.4628 3.21395 17.1977 3.47695 17.8957C3.70883 18.491 4.06285 19.0315 4.51639 19.4828C4.96993 19.9341 5.51302 20.2863 6.11095 20.5167C6.80839 20.7888 7.54732 20.9403 8.29595 20.9648C9.25895 21.0067 9.56395 21.0196 12.006 21.0196C14.448 21.0196 14.761 21.0196 15.716 20.9648C16.4631 20.9497 17.2022 20.8086 17.902 20.5476C18.4997 20.3168 19.0426 19.9644 19.4959 19.5129C19.9493 19.0615 20.3031 18.5209 20.535 17.9256C20.798 17.2285 20.939 16.4936 20.954 15.7488C20.997 14.7908 21.01 14.4871 21.01 12.0543C21.01 9.62151 21.01 9.3128 20.954 8.35981C20.9423 7.60525 20.7999 6.85837 20.533 6.15209V6.15209ZM19.315 15.6442C19.3085 16.2181 19.2033 16.7866 19.004 17.3251C18.8538 17.7124 18.6239 18.064 18.329 18.3575C18.0342 18.6509 17.6809 18.8797 17.292 19.029C16.7572 19.2266 16.1923 19.3313 15.622 19.3387C14.672 19.3825 14.404 19.3934 11.968 19.3934C9.52995 19.3934 9.28095 19.3934 8.31295 19.3387C7.74288 19.3317 7.17828 19.227 6.64395 19.029C6.25364 18.8806 5.89895 18.6523 5.60284 18.3588C5.30673 18.0653 5.07579 17.7131 4.92495 17.3251C4.7284 16.7924 4.62326 16.2306 4.61395 15.6631C4.57095 14.7171 4.56095 14.4502 4.56095 12.0244C4.56095 9.59761 4.56095 9.34965 4.61395 8.3847C4.62042 7.81114 4.72561 7.24292 4.92495 6.70476C5.22995 5.91906 5.85495 5.30066 6.64395 4.99993C7.17854 4.80289 7.74298 4.69816 8.31295 4.69023C9.26395 4.64741 9.53095 4.63546 11.968 4.63546C14.405 4.63546 14.655 4.63546 15.622 4.69023C16.1924 4.69706 16.7573 4.80183 17.292 4.99993C17.6809 5.14957 18.0341 5.37854 18.3289 5.67213C18.6238 5.96573 18.8537 6.31746 19.004 6.70476C19.2005 7.23747 19.3056 7.79932 19.315 8.36678C19.358 9.3138 19.369 9.57968 19.369 12.0065C19.369 14.4323 19.369 14.6932 19.326 15.6452H19.315V15.6442Z" fill="#CDC5BF"/>
</svg>
