<svg width="732" height="851" viewBox="0 0 732 851" fill="none" xmlns="http://www.w3.org/2000/svg">
<rect width="732" height="851" fill="url(#paint0_linear_3739_277)"/>
<path d="M3.86621 29.8026C54.1864 29.7426 104.071 52.7437 136.483 90.9587C164.586 124.102 179.067 166.427 203.173 202.527C227.28 238.627 267.999 270.305 310.933 262.374C340.392 256.93 363.808 233.616 377.659 207.238C391.511 180.86 397.504 151.274 404.926 122.456C412.348 93.6386 421.768 64.3884 440.959 41.5435C465.296 12.5939 504.804 -3.02864 542.532 1.38171" stroke="#ADB1A5" stroke-miterlimit="10"/>
<path d="M54.4277 24.3222C74.9317 24.4293 95.1713 28.9226 113.767 37.4957C132.363 46.0689 148.879 58.5204 162.188 74.0017C184.974 100.896 196.743 135.302 216.322 164.588C235.9 193.874 268.979 219.639 303.825 213.198C327.75 208.776 346.772 189.837 358.02 168.41C369.268 146.983 374.147 122.948 380.177 99.5505C386.207 76.1528 393.847 52.4186 409.442 33.8639C419.477 22.1685 432.239 13.0829 446.617 7.39672C460.995 1.71057 476.555 -0.403965 491.945 1.23692" stroke="#ADB1A5" stroke-miterlimit="10"/>
<path d="M37.5742 26.1493C59.6499 26.2698 81.4401 31.1111 101.461 40.3436C121.481 49.576 139.262 62.9826 153.592 79.6503C178.183 108.648 190.847 145.673 211.939 177.267C233.031 208.86 268.652 236.548 306.187 229.614C331.952 224.807 352.439 204.45 364.559 181.377C376.679 158.304 381.921 132.418 388.411 107.206C394.901 81.9937 403.146 56.4089 419.891 36.4241C430.697 23.8241 444.441 14.0361 459.928 7.91194C475.415 1.78774 492.176 -0.487065 508.751 1.28549" stroke="#ADB1A5" stroke-miterlimit="10"/>
<path d="M71.2822 22.5079C90.1997 22.6091 108.873 26.7568 126.029 34.6684C143.185 42.5799 158.422 54.0694 170.7 68.3539C191.779 93.1937 202.628 124.919 220.705 151.994C238.782 179.069 269.294 202.803 301.464 196.855C323.549 192.769 341.105 175.284 351.482 155.515C361.858 135.747 366.362 113.563 371.932 91.9559C377.502 70.3488 384.548 48.4292 398.945 31.3045C408.202 20.5023 419.978 12.1086 433.249 6.85375C446.52 1.59886 460.884 -0.358096 475.091 1.15311" stroke="#ADB1A5" stroke-miterlimit="10"/>
<g style="mix-blend-mode:overlay">
<path d="M453.343 0C445.753 7.08295 436.868 12.6591 427.166 16.4277C409.477 23.2174 389.535 24.5153 373.48 34.5257C352.328 47.7448 342.496 73.0652 337.157 97.2681C331.817 121.471 329.432 146.972 317.457 168.699C292.539 213.776 230.583 229.266 181.462 212.935C148.771 202.035 121.443 180.103 99.4192 153.365C88.4377 139.909 78.6885 125.507 70.2877 110.331C51.3511 76.382 37.4634 38.9962 11.4921 9.9984C8.31944 6.46252 4.93092 3.12343 1.3457 0L453.343 0Z" fill="#CDC5BF" fill-opacity="0.3"/>
</g>
<path d="M20.7197 27.976C44.3728 28.1039 67.7205 33.288 89.1739 43.1755C110.627 53.063 129.683 67.4217 145.043 85.2745C171.39 116.339 184.999 156.008 207.556 189.825C230.113 223.642 268.325 253.361 308.547 245.922C336.165 240.814 358.105 218.955 371.096 194.247C384.088 169.54 389.706 141.78 396.656 114.777C403.606 87.7741 412.396 60.3386 430.437 38.9237C453.248 11.7887 490.286 -2.86042 525.653 1.27353" stroke="#ADB1A5" stroke-miterlimit="10"/>
<g style="mix-blend-mode:overlay">
<path d="M731.343 519.047V850.839H249.451C251.031 836.807 254.041 822.97 258.435 809.54C273.465 763.946 306.068 724.03 347.405 699.582C369.23 686.505 393.629 678.213 418.96 675.265C452.064 671.597 489.383 676.022 514.899 654.811C530.298 641.993 537.701 622.544 547.317 605.105C574.559 555.439 625.868 517.442 682.761 513.448C699.164 512.366 715.629 514.264 731.343 519.047Z" fill="#CDC5BF" fill-opacity="0.44"/>
</g>
<path d="M154.543 849.933C146.213 819.769 140.135 786.89 151.783 757.832C167.039 719.761 209.355 698.43 250.34 693.551C291.325 688.672 332.601 696.736 373.768 699.848C414.934 702.961 459.019 700.257 492.957 676.919C540.008 644.545 555.458 581.454 597.92 543.323C633.324 511.537 686.768 501.058 731.688 517.089" stroke="#ADB1A5" stroke-miterlimit="10"/>
<path d="M248.089 849.932C241.115 824.696 235.982 797.056 245.777 772.757C258.563 740.851 294.014 722.981 328.364 718.895C362.714 714.81 397.294 721.563 431.79 724.171C466.285 726.779 503.226 724.52 531.655 704.943C571.09 677.82 584.034 624.944 619.606 593.002C649.271 566.36 694.058 557.575 731.701 571.023" stroke="#ADB1A5" stroke-miterlimit="10"/>
<path d="M279.255 849.932C272.729 826.282 267.97 800.517 277.088 777.733C289.05 747.882 322.226 731.165 354.36 727.344C386.494 723.522 418.846 729.844 451.114 732.271C483.381 734.699 517.949 732.608 544.538 714.305C581.43 688.925 593.538 639.461 626.871 609.574C654.598 584.65 696.491 576.491 731.701 589.013" stroke="#ADB1A5" stroke-miterlimit="10"/>
<path d="M185.738 849.932C177.856 821.391 172.117 790.302 183.123 762.807C197.555 726.755 237.608 706.614 276.353 701.999C315.098 697.385 354.182 705.076 393.073 707.948C431.963 710.82 473.723 708.344 505.821 686.317C550.329 655.685 564.944 596.007 605.105 559.931C638.608 529.887 689.158 519.949 731.656 535.115" stroke="#ADB1A5" stroke-miterlimit="10"/>
<path d="M216.914 849.932C209.491 823.025 204.067 793.703 214.492 767.782C228.089 733.821 265.841 714.797 302.395 710.447C338.948 706.097 375.768 713.283 412.491 716.059C449.214 718.835 488.529 716.432 518.798 695.63C560.776 666.788 574.494 610.487 612.416 576.478C644.005 548.117 691.674 538.768 731.739 553.068" stroke="#ADB1A5" stroke-miterlimit="10"/>
<defs>
<linearGradient id="paint0_linear_3739_277" x1="314.347" y1="150.069" x2="586.72" y2="750.95" gradientUnits="userSpaceOnUse">
<stop stop-color="#797E72" stop-opacity="0.73"/>
<stop offset="0.503125" stop-color="#797E72" stop-opacity="0.79"/>
<stop offset="0.791667" stop-color="#797E72"/>
<stop offset="1" stop-color="#797E72"/>
</linearGradient>
</defs>
</svg>
