<svg width="545" height="1461" viewBox="0 0 545 1461" fill="none" xmlns="http://www.w3.org/2000/svg">
<rect width="544" height="1461" fill="url(#paint0_linear_3739_277)"/>
<path d="M2.87305 51.1651C40.2695 51.062 77.3419 90.5504 101.43 156.158C122.315 213.059 133.077 285.723 150.992 347.7C168.907 409.676 199.168 464.06 231.076 450.444C252.968 441.098 270.371 401.073 280.665 355.787C290.959 310.501 295.413 259.707 300.929 210.233C306.444 160.759 313.445 110.542 327.707 71.322C345.794 21.621 375.155 -5.19974 403.193 2.37197" stroke="#ADB1A5" stroke-miterlimit="10"/>
<path d="M40.4492 41.7566C55.6871 41.9405 70.7286 49.6546 84.5486 64.373C98.3686 79.0914 110.642 100.468 120.533 127.047C137.468 173.22 146.214 232.287 160.764 282.566C175.314 332.844 199.897 377.078 225.794 366.02C243.574 358.427 257.71 325.912 266.07 289.127C274.429 252.341 278.055 211.078 282.536 170.909C287.017 130.74 292.695 89.9927 304.285 58.1379C311.743 38.0592 321.227 22.4609 331.912 12.6989C342.598 2.93691 354.162 -0.69333 365.598 2.12375" stroke="#ADB1A5" stroke-miterlimit="10"/>
<path d="M27.9238 44.893C44.3298 45.0999 60.5236 53.4115 75.4023 69.2618C90.281 85.1121 103.495 108.129 114.144 136.744C132.42 186.527 141.832 250.093 157.507 304.332C173.181 358.572 199.654 406.107 227.548 394.203C246.696 385.95 261.921 351 270.929 311.388C279.936 271.776 283.832 227.336 288.655 184.052C293.478 140.767 299.606 96.8428 312.05 62.5328C320.081 40.9012 330.295 24.0971 341.805 13.5831C353.314 3.06904 365.77 -0.836357 378.088 2.20677" stroke="#ADB1A5" stroke-miterlimit="10"/>
<path d="M52.9746 38.6417C67.0335 38.8155 80.9108 45.9363 93.6608 59.5189C106.411 73.1016 117.734 92.8268 126.859 117.35C142.524 159.995 150.587 214.462 164.021 260.945C177.455 307.427 200.131 348.174 224.039 337.961C240.452 330.947 253.499 300.928 261.21 266.99C268.922 233.051 272.269 194.966 276.408 157.87C280.548 120.775 285.784 83.1436 296.483 53.7439C303.363 35.1986 312.115 20.7883 321.978 11.7667C331.84 2.74509 342.515 -0.614622 353.073 1.97983" stroke="#ADB1A5" stroke-miterlimit="10"/>
<g style="mix-blend-mode:overlay">
<path d="M336.911 0C331.27 12.16 324.667 21.7332 317.457 28.2031C304.311 39.8598 289.491 42.088 277.559 59.2739C261.839 81.9684 254.533 125.439 250.564 166.99C246.596 208.542 244.824 252.321 235.924 289.623C217.406 367.011 171.362 393.605 134.857 365.567C110.562 346.854 90.2529 309.202 73.8852 263.297C65.7241 240.197 58.4788 215.472 52.2356 189.416C38.1625 131.133 27.8416 66.9487 8.54048 17.1653C6.18267 11.0949 3.66443 5.36232 1 0L336.911 0Z" fill="#CDC5BF" fill-opacity="0.3"/>
</g>
<path d="M15.3984 48.0292C32.9767 48.2488 50.328 57.149 66.2715 74.1238C82.2149 91.0987 96.3763 115.75 107.792 146.399C127.372 199.732 137.486 267.836 154.249 325.892C171.013 383.949 199.411 434.97 229.303 422.199C249.828 413.431 266.133 375.903 275.788 333.485C285.443 291.067 289.618 243.408 294.783 197.049C299.948 150.691 306.48 103.589 319.888 66.8244C336.84 20.2388 364.366 -4.91085 390.649 2.18633" stroke="#ADB1A5" stroke-miterlimit="10"/>
<g style="mix-blend-mode:overlay">
<path d="M543.512 891.102V1460.72H185.385C186.559 1436.63 188.796 1412.88 192.061 1389.82C203.231 1311.54 227.461 1243.02 258.181 1201.04C274.401 1178.59 292.534 1164.36 311.359 1159.3C335.96 1153 363.695 1160.6 382.657 1124.18C394.102 1102.18 399.603 1068.79 406.75 1038.85C426.995 953.579 465.126 888.346 507.408 881.489C519.598 879.632 531.834 882.89 543.512 891.102Z" fill="#CDC5BF" fill-opacity="0.44"/>
</g>
<path d="M114.852 1459.17C108.661 1407.38 104.144 1350.94 112.8 1301.05C124.138 1235.69 155.587 1199.07 186.046 1190.69C216.504 1182.32 247.179 1196.16 277.773 1201.5C308.367 1206.85 341.129 1202.2 366.351 1162.14C401.318 1106.56 412.8 998.242 444.356 932.779C470.667 878.209 510.385 860.219 543.768 887.741" stroke="#ADB1A5" stroke-miterlimit="10"/>
<path d="M184.372 1459.17C179.189 1415.84 175.374 1368.39 182.654 1326.67C192.156 1271.9 218.502 1241.22 244.03 1234.2C269.558 1227.19 295.257 1238.78 320.893 1243.26C346.528 1247.74 373.982 1243.86 395.11 1210.25C424.417 1163.68 434.036 1072.91 460.472 1018.07C482.518 972.329 515.802 957.247 543.778 980.334" stroke="#ADB1A5" stroke-miterlimit="10"/>
<path d="M207.534 1459.17C202.684 1418.56 199.147 1374.33 205.923 1335.21C214.813 1283.97 239.468 1255.27 263.349 1248.71C287.231 1242.15 311.274 1253 335.254 1257.17C359.234 1261.33 384.924 1257.74 404.684 1226.32C432.101 1182.75 441.099 1097.83 465.871 1046.52C486.477 1003.73 517.611 989.721 543.778 1011.22" stroke="#ADB1A5" stroke-miterlimit="10"/>
<path d="M138.035 1459.17C132.177 1410.17 127.912 1356.79 136.091 1309.59C146.817 1247.7 176.583 1213.12 205.377 1205.2C234.171 1197.27 263.217 1210.48 292.12 1215.41C321.022 1220.34 352.056 1216.09 375.911 1178.27C408.988 1125.68 419.849 1023.23 449.696 961.291C474.594 909.713 512.161 892.651 543.745 918.687" stroke="#ADB1A5" stroke-miterlimit="10"/>
<path d="M161.203 1459.17C155.687 1412.97 151.656 1362.63 159.404 1318.13C169.509 1259.83 197.565 1227.17 224.73 1219.7C251.896 1212.23 279.259 1224.57 306.551 1229.33C333.842 1234.1 363.059 1229.97 385.555 1194.26C416.751 1144.74 426.946 1048.09 455.129 989.7C478.605 941.01 514.031 924.959 543.806 949.51" stroke="#ADB1A5" stroke-miterlimit="10"/>
<defs>
<linearGradient id="paint0_linear_3739_277" x1="233.613" y1="257.639" x2="854.733" y2="850.791" gradientUnits="userSpaceOnUse">
<stop stop-color="#797E72" stop-opacity="0.73"/>
<stop offset="0.503125" stop-color="#797E72" stop-opacity="0.79"/>
<stop offset="0.791667" stop-color="#797E72"/>
<stop offset="1" stop-color="#797E72"/>
</linearGradient>
</defs>
</svg>
