<svg width="24" height="24" viewBox="0 0 24 24" fill="none" xmlns="http://www.w3.org/2000/svg">
<path d="M11.99 2.05823C6.472 2.05823 2 6.51251 2 12.0064C2 16.2207 4.633 19.8236 8.35 21.2735C8.262 20.4868 8.184 19.2759 8.384 18.4175C8.566 17.6407 9.556 13.4723 9.556 13.4723C9.556 13.4723 9.257 12.8758 9.257 11.9945C9.257 10.6123 10.062 9.57962 11.065 9.57962C11.918 9.57962 12.329 10.2169 12.329 10.9807C12.329 11.8351 11.783 13.1108 11.502 14.2938C11.267 15.2837 12.001 16.0913 12.981 16.0913C14.756 16.0913 16.122 14.2271 16.122 11.5354C16.122 9.15341 14.403 7.48841 11.949 7.48841C9.106 7.48841 7.437 9.61149 7.437 11.8053C7.437 12.6597 7.768 13.5768 8.181 14.0757C8.2161 14.1133 8.24088 14.1592 8.25297 14.2091C8.26505 14.259 8.26403 14.3112 8.25 14.3605C8.174 14.6742 8.005 15.3504 7.973 15.4888C7.929 15.671 7.828 15.7099 7.638 15.6222C6.391 15.0437 5.611 13.2273 5.611 11.7674C5.611 8.62961 7.9 5.74772 12.212 5.74772C15.678 5.74772 18.371 8.20639 18.371 11.4936C18.371 14.9232 16.2 17.6806 13.187 17.6806C12.174 17.6806 11.223 17.1578 10.897 16.5394L10.274 18.9034C10.049 19.7678 9.44 20.8513 9.033 21.5125C9.99111 21.807 10.9883 21.9564 11.991 21.9556C17.508 21.9556 21.981 17.5013 21.981 12.0074C21.981 6.51351 17.507 2.05823 11.99 2.05823Z" fill="#CDC5BF"/>
</svg>
